<svg xmlns="http://www.w3.org/2000/svg" viewBox="0 0 720 640" role="img" aria-labelledby="title desc">
  <title id="title">Composição abstrata de território</title>
  <desc id="desc">Curvas de nível, linhas de água e parcelas territoriais genéricas, sem coordenadas reais.</desc>
  <defs>
    <linearGradient id="paper" x1="0" y1="0" x2="1" y2="1">
      <stop offset="0" stop-color="#FFFDF7"/>
      <stop offset="1" stop-color="#F0E9DA"/>
    </linearGradient>
    <linearGradient id="green" x1="0" y1="0" x2="1" y2="1">
      <stop offset="0" stop-color="#688C26"/>
      <stop offset="1" stop-color="#22511A"/>
    </linearGradient>
  </defs>
  <rect x="42" y="40" width="636" height="560" rx="28" fill="url(#paper)" stroke="#22511A" stroke-opacity=".18"/>
  <path d="M86 480C151 398 205 388 280 411c102 31 142-66 226-83 42-8 81 4 128 32" fill="none" stroke="#488F8A" stroke-width="16" stroke-linecap="round" opacity=".75"/>
  <path d="M105 146c77 8 98 45 148 74 57 33 129 13 176 51 39 32 62 80 178 88" fill="none" stroke="#22511A" stroke-width="3" stroke-linecap="round" opacity=".5"/>
  <path d="M128 190c62 6 92 33 132 56 63 36 127 12 171 54 35 34 78 70 154 76" fill="none" stroke="#22511A" stroke-width="3" stroke-linecap="round" opacity=".42"/>
  <path d="M145 238c55 8 83 24 122 45 68 36 118 12 164 55 29 28 73 55 137 64" fill="none" stroke="#22511A" stroke-width="3" stroke-linecap="round" opacity=".34"/>
  <path d="M154 286c59 11 85 19 128 42 73 38 113 20 153 56 29 27 66 47 116 57" fill="none" stroke="#22511A" stroke-width="3" stroke-linecap="round" opacity=".28"/>
  <path d="M175 337c52 5 79 19 118 38 71 35 111 25 149 54 23 17 52 31 96 40" fill="none" stroke="#22511A" stroke-width="3" stroke-linecap="round" opacity=".22"/>
  <g fill="none" stroke="#688C26" stroke-width="2" opacity=".8">
    <path d="M112 112h192v112H112z"/>
    <path d="M304 112h150v88H304z"/>
    <path d="M454 112h140v148H454z"/>
    <path d="M132 391h168v116H132z"/>
    <path d="M300 422h155v84H300z"/>
    <path d="M455 405h134v101H455z"/>
    <path d="M260 224l65 84-25 114"/>
    <path d="M454 260l-28 96 29 49"/>
  </g>
  <g fill="url(#green)" opacity=".92">
    <circle cx="160" cy="136" r="8"/>
    <circle cx="387" cy="157" r="8"/>
    <circle cx="548" cy="202" r="8"/>
    <circle cx="205" cy="447" r="8"/>
    <circle cx="386" cy="466" r="8"/>
    <circle cx="525" cy="452" r="8"/>
  </g>
  <g fill="#0B370B">
    <rect x="102" y="528" width="132" height="12" rx="6" opacity=".8"/>
    <rect x="102" y="548" width="88" height="8" rx="4" opacity=".42"/>
    <rect x="250" y="528" width="92" height="12" rx="6" opacity=".72"/>
    <rect x="250" y="548" width="118" height="8" rx="4" opacity=".34"/>
  </g>
</svg>
